<svg width="292" height="100" viewBox="0 0 292 100" fill="none" xmlns="http://www.w3.org/2000/svg">
<path d="M99.6179 40.1737C99.6179 52.1428 89.3498 61.8457 76.6835 61.8457C64.0171 61.8457 53.749 52.1428 53.749 40.1737C53.749 28.2046 64.0171 18.5017 76.6835 18.5017C89.3498 18.5017 99.6179 28.2046 99.6179 40.1737ZM67.5097 40.1737C67.5097 44.9613 71.6169 48.8425 76.6835 48.8425C81.75 48.8425 85.8572 44.9613 85.8572 40.1737C85.8572 35.386 81.75 31.5049 76.6835 31.5049C71.6169 31.5049 67.5097 35.386 67.5097 40.1737Z" fill="#53A548"/>
<path fill-rule="evenodd" clip-rule="evenodd" d="M39.9885 12C36.1886 12 33.1081 14.9109 33.1081 18.5016V20.3049C30.2989 19.1451 27.1962 18.5017 23.9344 18.5017C11.2681 18.5017 1 28.2046 1 40.1737C1 52.1428 11.2681 61.8457 23.9344 61.8457C36.6007 61.8457 46.8688 52.1428 46.8688 40.1737C46.8688 40.1607 46.8688 40.1477 46.8688 40.1348V18.5016C46.8688 14.9109 43.7884 12 39.9885 12ZM33.1081 40.1491V40.1736C33.1081 40.179 33.1082 40.1844 33.1082 40.1898C33.099 44.97 28.9953 48.8425 23.9344 48.8425C18.8679 48.8425 14.7607 44.9613 14.7607 40.1737C14.7607 35.386 18.8679 31.5049 23.9344 31.5049C28.9923 31.5049 33.0941 35.3727 33.1081 40.1491Z" fill="#53A548"/>
<path d="M3.19463 76.1107C3.27535 76.2768 3.36256 76.4382 3.45584 76.5948C5.33149 80.0243 8.18281 82.9006 11.7059 84.9115C15.3469 86.9896 19.5579 88.0592 23.8556 87.9975C28.1533 87.9357 32.3635 86.7451 36.0031 84.5623C38.6736 82.9607 40.9576 80.8726 42.7224 78.4378C43.5228 77.663 44.0987 76.7168 44.4127 75.6951C44.4193 75.6823 44.4259 75.6696 44.4325 75.6568L44.4253 75.6537C44.8575 74.2123 44.7694 72.6237 44.0561 71.1555C42.4649 67.8806 38.3655 66.4446 34.8998 67.9481C33.2543 68.662 32.0475 69.9102 31.4041 71.3749C30.6973 72.3524 29.7816 73.1905 28.7103 73.833C27.2545 74.7061 25.5704 75.1824 23.8513 75.2071C22.1322 75.2318 20.4479 74.8039 18.9914 73.9727C17.535 73.1414 16.3656 71.9404 15.6174 70.5074L15.6118 70.51C13.9673 67.3712 9.96763 66.0182 6.57675 67.4893C3.12341 68.9875 1.60918 72.8474 3.19463 76.1107Z" fill="#53A548"/>
<path d="M141.52 87.12C135.653 87.12 131.013 86.08 127.6 84C124.24 81.92 122.56 79.04 122.56 75.36C122.56 75.04 122.587 74.64 122.64 74.16C122.693 73.7333 122.773 73.3067 122.88 72.88L133.92 66L136.4 68.8L131.36 74.96C131.307 75.12 131.28 75.2533 131.28 75.36C131.28 75.4667 131.28 75.5733 131.28 75.68C131.28 77.1733 132.213 78.32 134.08 79.12C135.947 79.92 138.427 80.32 141.52 80.32C144.133 80.32 146.133 79.9733 147.52 79.28C148.907 78.64 149.6 77.68 149.6 76.4C149.6 75.7067 149.413 75.1467 149.04 74.72C148.667 74.2933 148.053 73.9467 147.2 73.68C146.347 73.4133 145.227 73.1733 143.84 72.96C142.507 72.7467 140.88 72.5067 138.96 72.24C136.507 71.9733 134.107 71.4667 131.76 70.72C129.413 70.0267 127.467 68.9867 125.92 67.6C124.373 66.16 123.6 64.2667 123.6 61.92C123.6 59.84 124.32 57.9467 125.76 56.24C127.2 54.48 129.093 53.04 131.44 51.92L136.24 55.76C134.8 55.9733 133.707 56.4533 132.96 57.2C132.267 57.9467 131.92 58.8267 131.92 59.84C131.92 60.6933 132.267 61.3867 132.96 61.92C133.653 62.4 134.64 62.7733 135.92 63.04C137.2 63.3067 138.72 63.5467 140.48 63.76C143.2 64.1333 145.707 64.5333 148 64.96C150.347 65.3867 152.373 66 154.08 66.8C155.84 67.5467 157.173 68.5867 158.08 69.92C159.04 71.2533 159.52 72.9867 159.52 75.12C159.52 79.0133 157.947 81.9733 154.8 84C151.707 86.08 147.28 87.12 141.52 87.12ZM140.72 58.96C137.413 58.96 134.507 58.3467 132 57.12C129.547 55.84 127.627 54.1333 126.24 52C124.853 49.8133 124.16 47.3067 124.16 44.48C124.16 41.5467 124.88 38.9867 126.32 36.8C127.813 34.56 129.787 32.8267 132.24 31.6C134.747 30.3733 137.467 29.76 140.4 29.76C143.28 29.76 145.947 30.3733 148.4 31.6C150.907 32.8267 152.907 34.5867 154.4 36.88C155.947 39.12 156.72 41.76 156.72 44.8C156.72 47.68 156.027 50.1867 154.64 52.32C153.307 54.4 151.44 56.0267 149.04 57.2C146.64 58.3733 143.867 58.96 140.72 58.96ZM140.48 51.12C142.613 51.12 144.187 50.48 145.2 49.2C146.267 47.8667 146.8 46.2667 146.8 44.4C146.8 42.48 146.24 40.9333 145.12 39.76C144 38.5333 142.453 37.92 140.48 37.92C138.507 37.92 136.933 38.5333 135.76 39.76C134.64 40.9867 134.08 42.5333 134.08 44.4C134.08 46.2667 134.613 47.8667 135.68 49.2C136.747 50.48 138.347 51.12 140.48 51.12ZM154 38.88L146.88 34.24L156 26.96L161.04 33.12L154 38.88ZM182.219 70.8C178.379 70.8 174.966 69.92 171.979 68.16C168.993 66.4 166.619 63.9733 164.859 60.88C163.153 57.7333 162.299 54.1867 162.299 50.24C162.299 46.24 163.153 42.72 164.859 39.68C166.566 36.5867 168.913 34.16 171.899 32.4C174.939 30.64 178.379 29.76 182.219 29.76C186.006 29.76 189.393 30.64 192.379 32.4C195.366 34.16 197.713 36.5867 199.419 39.68C201.126 42.72 201.979 46.24 201.979 50.24C201.979 54.1867 201.126 57.7067 199.419 60.8C197.713 63.8933 195.366 66.3467 192.379 68.16C189.393 69.92 186.006 70.8 182.219 70.8ZM182.219 62.08C184.246 62.08 185.979 61.6 187.419 60.64C188.913 59.68 190.033 58.32 190.779 56.56C191.579 54.8 191.979 52.6933 191.979 50.24C191.979 47.7333 191.579 45.6267 190.779 43.92C190.033 42.16 188.913 40.8267 187.419 39.92C185.979 38.96 184.246 38.48 182.219 38.48C180.139 38.48 178.353 38.96 176.859 39.92C175.366 40.8267 174.219 42.16 173.419 43.92C172.619 45.6267 172.219 47.7333 172.219 50.24C172.219 52.6933 172.619 54.8 173.419 56.56C174.219 58.32 175.366 59.68 176.859 60.64C178.353 61.6 180.139 62.08 182.219 62.08ZM229.521 70.8C227.547 70.8 225.627 70.4267 223.761 69.68C221.947 68.88 220.347 67.5733 218.961 65.76C217.574 63.8933 216.534 61.4133 215.841 58.32L218.241 59.44V70H208.321V14.24H218.241V41.2L216.161 41.84C216.641 39.12 217.521 36.88 218.801 35.12C220.134 33.3067 221.734 31.9733 223.601 31.12C225.467 30.2133 227.441 29.76 229.521 29.76C232.614 29.76 235.441 30.5867 238.001 32.24C240.561 33.84 242.587 36.16 244.081 39.2C245.574 42.24 246.321 45.92 246.321 50.24C246.321 54.1333 245.654 57.6533 244.321 60.8C242.987 63.8933 241.041 66.3467 238.481 68.16C235.974 69.92 232.987 70.8 229.521 70.8ZM226.801 61.68C228.774 61.68 230.454 61.2267 231.841 60.32C233.281 59.36 234.401 58.0267 235.201 56.32C236.001 54.6133 236.401 52.5867 236.401 50.24C236.401 47.8933 236.001 45.8933 235.201 44.24C234.401 42.5333 233.281 41.2267 231.841 40.32C230.454 39.36 228.774 38.88 226.801 38.88C224.881 38.88 223.201 39.36 221.761 40.32C220.374 41.2267 219.281 42.5333 218.481 44.24C217.734 45.9467 217.361 47.9467 217.361 50.24C217.361 52.5333 217.734 54.5333 218.481 56.24C219.281 57.9467 220.374 59.28 221.761 60.24C223.201 61.2 224.881 61.68 226.801 61.68ZM270.258 70.8C266.845 70.8 263.911 70.24 261.458 69.12C259.005 68 256.978 66.5067 255.378 64.64C253.831 62.72 252.685 60.56 251.938 58.16C251.191 55.7067 250.818 53.1467 250.818 50.48C250.818 47.92 251.191 45.4133 251.938 42.96C252.685 40.5067 253.805 38.2933 255.298 36.32C256.791 34.3467 258.711 32.7733 261.058 31.6C263.458 30.3733 266.311 29.76 269.618 29.76C272.711 29.76 275.405 30.2933 277.698 31.36C279.991 32.3733 281.885 33.8133 283.378 35.68C284.871 37.4933 285.991 39.6267 286.738 42.08C287.538 44.5333 287.938 47.1467 287.938 49.92C287.938 50.2933 287.911 50.8267 287.858 51.52C287.858 52.16 287.805 52.8533 287.698 53.6H260.738C261.005 56.4267 262.045 58.56 263.858 60C265.725 61.44 268.045 62.16 270.818 62.16C272.845 62.16 274.818 61.8133 276.738 61.12C278.658 60.3733 280.365 59.3333 281.858 58L286.818 64.72C284.951 66.16 283.191 67.3333 281.538 68.24C279.885 69.1467 278.151 69.7867 276.338 70.16C274.578 70.5867 272.551 70.8 270.258 70.8ZM278.098 48.64C278.205 48.2133 278.285 47.7867 278.338 47.36C278.445 46.9333 278.498 46.5333 278.498 46.16C278.498 45.04 278.285 44 277.858 43.04C277.431 42.0267 276.845 41.1467 276.098 40.4C275.351 39.6533 274.445 39.0933 273.378 38.72C272.365 38.2933 271.191 38.08 269.858 38.08C267.885 38.08 266.231 38.48 264.898 39.28C263.565 40.08 262.551 41.12 261.858 42.4C261.218 43.6267 260.818 44.9067 260.658 46.24H281.458L278.098 48.64Z" fill="black"/>
</svg>
