<svg width="126" height="64" viewBox="0 0 126 64" fill="none" xmlns="http://www.w3.org/2000/svg">
<path d="M20.32 41.96C18.16 41.96 16.2533 41.64 14.6 41C12.9733 40.3333 11.7067 39.36 10.8 38.08C9.89333 36.8 9.44 35.2533 9.44 33.44C9.44 31.6533 9.88 30.1067 10.76 28.8C11.64 27.4933 12.8933 26.48 14.52 25.76C16.1733 25.04 18.1067 24.68 20.32 24.68C20.9333 24.68 21.52 24.72 22.08 24.8C22.6667 24.88 23.24 24.9867 23.8 25.12L33.84 25.16V29.08C32.48 29.1067 31.0933 28.9467 29.68 28.6C28.2933 28.2267 27.0667 27.8267 26 27.4L25.88 27.12C26.7867 27.5467 27.64 28.08 28.44 28.72C29.24 29.3333 29.88 30.0533 30.36 30.88C30.8667 31.68 31.12 32.6133 31.12 33.68C31.12 35.4133 30.68 36.9067 29.8 38.16C28.92 39.3867 27.6667 40.3333 26.04 41C24.44 41.64 22.5333 41.96 20.32 41.96ZM27 53.2V52.24C27 51.0133 26.6 50.16 25.8 49.68C25.0267 49.2 23.96 48.96 22.6 48.96H16.4C15.2 48.96 14.1867 48.8667 13.36 48.68C12.56 48.4933 11.92 48.2267 11.44 47.88C10.96 47.5333 10.6133 47.12 10.4 46.64C10.1867 46.1867 10.08 45.6933 10.08 45.16C10.08 44.0933 10.4267 43.2933 11.12 42.76C11.8133 42.2 12.7467 41.8267 13.92 41.64C15.0933 41.4533 16.3867 41.4133 17.8 41.52L20.32 41.96C18.64 42.0133 17.3867 42.16 16.56 42.4C15.76 42.6133 15.36 43.0533 15.36 43.72C15.36 44.12 15.52 44.44 15.84 44.68C16.16 44.8933 16.6133 45 17.2 45H23.72C25.5067 45 27.0267 45.1867 28.28 45.56C29.56 45.96 30.5333 46.6133 31.2 47.52C31.8667 48.4533 32.2 49.72 32.2 51.32V53.2H27ZM20.32 38.2C21.4667 38.2 22.4667 38.0133 23.32 37.64C24.2 37.2667 24.88 36.7333 25.36 36.04C25.84 35.32 26.08 34.4667 26.08 33.48C26.08 32.4667 25.84 31.6 25.36 30.88C24.88 30.16 24.2133 29.6133 23.36 29.24C22.5067 28.84 21.4933 28.64 20.32 28.64C19.1733 28.64 18.16 28.84 17.28 29.24C16.4 29.6133 15.72 30.16 15.24 30.88C14.76 31.6 14.52 32.4667 14.52 33.48C14.52 34.4667 14.76 35.32 15.24 36.04C15.72 36.7333 16.3867 37.2667 17.24 37.64C18.12 38.0133 19.1467 38.2 20.32 38.2ZM47.8044 45.48C45.2977 45.48 43.0844 45.08 41.1644 44.28C39.271 43.48 37.791 42.32 36.7244 40.8C35.6577 39.2533 35.1244 37.36 35.1244 35.12C35.1244 32.88 35.6577 30.9867 36.7244 29.44C37.791 27.8667 39.271 26.68 41.1644 25.88C43.0844 25.08 45.2977 24.68 47.8044 24.68C50.311 24.68 52.4977 25.08 54.3644 25.88C56.2577 26.68 57.7377 27.8667 58.8044 29.44C59.871 30.9867 60.4044 32.88 60.4044 35.12C60.4044 37.36 59.871 39.2533 58.8044 40.8C57.7377 42.32 56.2577 43.48 54.3644 44.28C52.4977 45.08 50.311 45.48 47.8044 45.48ZM47.8044 41.48C49.191 41.48 50.431 41.24 51.5244 40.76C52.6444 40.2533 53.5244 39.5333 54.1644 38.6C54.8044 37.64 55.1244 36.48 55.1244 35.12C55.1244 33.76 54.8044 32.6 54.1644 31.64C53.5244 30.6533 52.6577 29.9067 51.5644 29.4C50.471 28.8933 49.2177 28.64 47.8044 28.64C46.4177 28.64 45.1644 28.8933 44.0444 29.4C42.9244 29.9067 42.031 30.64 41.3644 31.6C40.7244 32.56 40.4044 33.7333 40.4044 35.12C40.4044 36.48 40.7244 37.64 41.3644 38.6C42.0044 39.5333 42.8844 40.2533 44.0044 40.76C45.1244 41.24 46.391 41.48 47.8044 41.48ZM78.7684 45.44C77.0084 45.44 75.5018 45.1333 74.2484 44.52C72.9951 43.88 71.9818 43.0533 71.2084 42.04C70.4351 41 69.8618 39.88 69.4884 38.68C69.1151 37.4533 68.9284 36.2533 68.9284 35.08C68.9284 33.6133 69.1018 32.2533 69.4484 31C69.8218 29.7467 70.3951 28.6533 71.1684 27.72C71.9418 26.76 72.9551 26.0133 74.2084 25.48C75.4618 24.9467 76.9818 24.68 78.7684 24.68C80.8218 24.68 82.6351 25.12 84.2084 26C85.8084 26.8533 87.0618 28.0533 87.9684 29.6C88.9018 31.1467 89.3684 32.9733 89.3684 35.08C89.3684 37.1333 88.9018 38.9467 87.9684 40.52C87.0351 42.0667 85.7684 43.28 84.1684 44.16C82.5684 45.0133 80.7684 45.44 78.7684 45.44ZM77.0884 41.44C78.5018 41.44 79.7284 41.1733 80.7684 40.64C81.8084 40.1067 82.6084 39.3733 83.1684 38.44C83.7551 37.48 84.0484 36.36 84.0484 35.08C84.0484 33.16 83.4351 31.6133 82.2084 30.44C81.0084 29.2667 79.3018 28.68 77.0884 28.68C75.5418 28.68 74.1951 28.9333 73.0484 29.44C71.9018 29.9467 71.0084 30.68 70.3684 31.64C69.7551 32.5733 69.4484 33.72 69.4484 35.08C69.4484 36.3333 69.7551 37.44 70.3684 38.4C70.9818 39.36 71.8618 40.1067 73.0084 40.64C74.1551 41.1733 75.5151 41.44 77.0884 41.44ZM69.4484 17.12V39.88C69.4484 40.7333 69.4084 41.6533 69.3284 42.64C69.2484 43.6 69.1684 44.3867 69.0884 45H64.2484V17.12H69.4484ZM110.534 38.4H115.574C115.361 39.76 114.787 40.9733 113.854 42.04C112.947 43.1067 111.707 43.9467 110.134 44.56C108.561 45.1733 106.641 45.48 104.374 45.48C101.841 45.48 99.6007 45.08 97.6541 44.28C95.7074 43.4533 94.1874 42.2667 93.0941 40.72C92.0007 39.1733 91.4541 37.3067 91.4541 35.12C91.4541 32.9333 91.9874 31.0667 93.0541 29.52C94.1207 27.9467 95.6007 26.7467 97.4941 25.92C99.4141 25.0933 101.654 24.68 104.214 24.68C106.827 24.68 109.001 25.0933 110.734 25.92C112.467 26.7467 113.747 28 114.574 29.68C115.427 31.3333 115.787 33.4533 115.654 36.04H96.6941C96.8274 37.0533 97.2007 37.9733 97.8141 38.8C98.4541 39.6267 99.3074 40.28 100.374 40.76C101.467 41.24 102.761 41.48 104.254 41.48C105.907 41.48 107.281 41.2 108.374 40.64C109.494 40.0533 110.214 39.3067 110.534 38.4ZM103.974 28.64C102.054 28.64 100.494 29.0667 99.2941 29.92C98.0941 30.7467 97.3207 31.7733 96.9741 33H110.494C110.361 31.6667 109.721 30.6133 108.574 29.84C107.454 29.04 105.921 28.64 103.974 28.64Z" fill="#121212"/>
</svg>
