<svg width="148" height="146" viewBox="0 0 148 146" fill="none" xmlns="http://www.w3.org/2000/svg">
<path d="M65.7484 15.6451C69.1321 8.81943 78.8679 8.81944 82.2516 15.6451L89.623 30.5146C91.4965 34.294 95.6982 36.3174 99.8212 35.4258L116.043 31.918C123.489 30.3078 129.559 37.9194 126.332 44.8207L119.303 59.8548C117.516 63.676 118.554 68.2226 121.821 70.8902L134.678 81.3855C140.579 86.2033 138.413 95.6949 131.005 97.4749L114.869 101.353C110.767 102.338 107.859 105.984 107.811 110.202L107.621 126.798C107.534 134.416 98.7628 138.64 92.7525 133.958L79.6596 123.759C76.3317 121.167 71.6682 121.167 68.3404 123.759L55.2474 133.958C49.2372 138.64 40.4657 134.416 40.3786 126.798L40.1888 110.202C40.1406 105.984 37.233 102.338 33.1315 101.353L16.9945 97.4749C9.58699 95.6949 7.42059 86.2033 13.3222 81.3855L26.1786 70.8902C29.4463 68.2226 30.484 63.676 28.6973 59.8548L21.6679 44.8207C18.4411 37.9194 24.5112 30.3078 31.9575 31.918L48.1788 35.4258C52.3018 36.3174 56.5035 34.294 58.3771 30.5146L65.7484 15.6451Z" fill="#1C8838" stroke="#FFB400" stroke-width="19.3334"/>
</svg>
