<svg width="100" height="100" viewBox="0 0 100 100" fill="none" xmlns="http://www.w3.org/2000/svg">
<path d="M99.6179 40.1737C99.6179 52.1428 89.3498 61.8457 76.6835 61.8457C64.0171 61.8457 53.749 52.1428 53.749 40.1737C53.749 28.2046 64.0171 18.5017 76.6835 18.5017C89.3498 18.5017 99.6179 28.2046 99.6179 40.1737ZM67.5097 40.1737C67.5097 44.9613 71.6169 48.8425 76.6835 48.8425C81.75 48.8425 85.8572 44.9613 85.8572 40.1737C85.8572 35.386 81.75 31.5049 76.6835 31.5049C71.6169 31.5049 67.5097 35.386 67.5097 40.1737Z" fill="#53A548"/>
<path fill-rule="evenodd" clip-rule="evenodd" d="M39.9885 12C36.1886 12 33.1081 14.9109 33.1081 18.5016V20.3049C30.2989 19.1451 27.1962 18.5017 23.9344 18.5017C11.2681 18.5017 1 28.2046 1 40.1737C1 52.1428 11.2681 61.8457 23.9344 61.8457C36.6007 61.8457 46.8688 52.1428 46.8688 40.1737C46.8688 40.1607 46.8688 40.1477 46.8688 40.1348V18.5016C46.8688 14.9109 43.7884 12 39.9885 12ZM33.1081 40.1491V40.1736C33.1081 40.179 33.1082 40.1844 33.1082 40.1898C33.099 44.97 28.9953 48.8425 23.9344 48.8425C18.8679 48.8425 14.7607 44.9613 14.7607 40.1737C14.7607 35.386 18.8679 31.5049 23.9344 31.5049C28.9923 31.5049 33.0941 35.3727 33.1081 40.1491Z" fill="#53A548"/>
<path d="M3.19463 76.1107C3.27535 76.2768 3.36256 76.4382 3.45584 76.5948C5.33149 80.0243 8.18281 82.9006 11.7059 84.9115C15.3469 86.9896 19.5579 88.0592 23.8556 87.9975C28.1533 87.9357 32.3635 86.7451 36.0031 84.5623C38.6736 82.9607 40.9576 80.8726 42.7224 78.4378C43.5228 77.663 44.0987 76.7168 44.4127 75.6951C44.4193 75.6823 44.4259 75.6696 44.4325 75.6568L44.4253 75.6537C44.8575 74.2123 44.7694 72.6237 44.0561 71.1555C42.4649 67.8806 38.3655 66.4446 34.8998 67.9481C33.2543 68.662 32.0475 69.9102 31.4041 71.3749C30.6973 72.3524 29.7816 73.1905 28.7103 73.833C27.2545 74.7061 25.5704 75.1824 23.8513 75.2071C22.1322 75.2318 20.4479 74.8039 18.9914 73.9727C17.535 73.1414 16.3656 71.9404 15.6174 70.5074L15.6118 70.51C13.9673 67.3712 9.96763 66.0182 6.57675 67.4893C3.12341 68.9875 1.60918 72.8474 3.19463 76.1107Z" fill="#53A548"/>
</svg>
